<svg version="1" xmlns="http://www.w3.org/2000/svg" viewBox="0 0 1020.29 245.37" enable-background="new 0 0 1020.29 245.37"><style type="text/css">.style1{fill:#575757;} .style2{fill:#00A8A2;}</style><g id="Product"><path class="style2" d="M774.53 22.71h22.93l13.14 32.13 4.64 12.61h.51l4.64-12.61 12.62-32.13h22.93v77.35h-20.61V77.21c0-7.85 1.8-19.87 2.83-27.61h-.52l-6.96 18.09-11.59 26.06h-8.25l-11.59-26.06-6.7-18.09h-.51c1.03 7.74 2.83 19.75 2.83 27.61v22.85h-20.36V22.71zM901.56 21.28c10.56 0 19.58 4.76 25.51 10.23l-12.11 12.61c-4.12-3.33-7.73-5.24-13.14-5.24-10.05 0-18.55 8.33-18.55 22.37 0 14.52 7.21 22.61 18.04 22.61 6.44 0 11.08-2.62 14.69-6.19l12.11 12.38c-7.09 7.62-16.75 11.42-27.05 11.42-21.9 0-40.45-13.09-40.45-39.51-.02-25.93 19.31-40.68 40.95-40.68zM931.46 22.71h22.16v42.37c0 13.8 3.87 18.8 12.63 18.8 8.76 0 12.88-5 12.88-18.8V22.71h21.39v39.98c0 26.42-10.82 38.8-34.27 38.8-23.45 0-34.78-12.38-34.78-38.8V22.71z"/></g><path id="Skylink" class="style1" d="M311.32 151.21c-.61 1.77-3.1 1.83-3.79.08l-33.97-85.3c-.87-2.29-3.22-1.46-5.85-1.46h-38.58c-1.88 0-3.65.32-4.83 1.67l-42.69 48.57c-.44.5-4.06 5.09-4.12 2.73-.34-2.34-.6-7.19-.6-8.14V69.78c0-3.16-6.61-5.25-10.04-5.25h-19.16c-3.42 0-3.81 2.08-3.81 5.25v116.29c0 3.16-.62 7.46 2.81 7.46h23.58c5.78-.17 6.61-4.3 6.61-7.46V175.7c.17-5.83-1.37-17.63-.38-18.67l13.97-15.76c2.78-2.93 7.37-2.5 9.52.86l29.77 47.73c1.12 1.74 2.91 3.68 5.1 3.68h21.06c4.89 0 7.86-5.86 5.23-9.67l-44.62-65.27c-1.45-2.11-2.07-5.06-.33-6.97l19.67-22.69v-.04l2.08-2.58c2.48-2.46 8.78-5.79 12.22.21h.04L293.1 187.2c.51 1.18.59 3.08.2 4.3l-1.99 6.63c-4.59 12.99-13.21 22.42-28.14 22.42-1.38 0-2.85-.1-4.28-.35-3.26-.58-6.45 1.29-7.2 4.28l-3.24 12.85c-.79 3.12 1.34 6.25 4.74 6.92 3.53.69 7.46 1.11 12.28 1.11 30.72 0 45.37-18.3 57.14-47.73l48.25-126.97c1.4-3.72-1.59-6.13-5.86-6.13h-18.57c-2.72 0-5.13.17-5.93 2.57l-2.48 7.14-26.7 76.97zm150.56 24.31c-.12-4.86-3-5.98-7.78-5.98h-.04c-46.43.25-48.11.49-48.11-11.16l-.07-88.79c0-3.16.42-5.05-3-5.05h-20.62c-3.42 0-5.38 1.89-5.38 5.05l-.02 103.28c-.31 25.67-2.24 22.12 31.77 22.12 4.65 0 44.63.3 47.89-.35 3.23-.64 5.36-3.21 5.36-6.21v-12.91zM94.67 96.59L69.4 86.78c-15.5-5.83-29.86-10.87-29.86-24.4 0-12.73 11.49-20.42 29.29-20.42 13.99 0 25.59 4.21 36.12 11.42 2.67 1.83 6.43 1.41 8.52-.98l9.7-11.05c2.11-2.4 1.79-5.94-.76-7.94C108.07 22.1 88.8 15.18 68.83 15.18c-36.46 0-64.88 21.22-64.88 48.8 0 25.46 21.24 38.99 39.9 46.15l25.55 10.34c17.23 6.63 28.29 11.14 28.29 25.46 0 13.52-10.77 22.28-31.73 22.28-15.6 0-31.65-6.31-44.51-15.93-2.63-1.96-6.46-1.65-8.64.73L1.47 165.33c-2.21 2.41-1.89 6.01.7 8.07 17.3 13.78 39.75 21.59 62.92 21.59 42.21 0 67.47-23.34 67.47-51.45.01-25.2-15.5-38.19-37.89-46.95zm669.61 87.28l-44.62-65.34c-1.45-2.11-1.26-5.02.48-6.93l36.75-39.03c3.39-3.73.52-8.03-4.75-8.03h-19.9c-1.88 0-3.65.32-4.83 1.67l-50.39 57.33h-.14V64.26c0-3.16-1.12-6.6-6.92-6.72H652.8c-.25 0-.5.02-.74.04-.14-.02-.29-.04-.44-.04h-8.45c-8.66.38-7.82.41-4.84 5.48 4.8 8.14 4.59 21.39 4.55 28.02v98.73c0 3.75 3.92 3.58 3.92 3.58l23.16.19c6.55-.38 6.55-.38 6.92-7.46V160.8c0-1.39.18-2.73 1.17-3.77l14.75-15.76c2.78-2.94 7.76-2.5 9.91.86l29.97 47.73c1.12 1.74 3.1 3.68 5.29 3.68h21.06c4.91 0 7.87-5.86 5.25-9.67zM499.88 69.09c0-3.16-4.35-4.55-7.78-4.55h-19.44c-3.42 0-2.78 1.39-2.78 4.55V190c0 3.16-.65 3.54 2.78 3.54h19.44c5.65 0 7.78-2.09 7.78-5.25V69.09zm43.71 4.27l-1.12-7.04c-.38-2.88-3.02-1.79-6.16-1.79H519.3c-3.42 0-6.42-.39-6.42 2.78v120.56c-.12 6.46-.9 5.41 5.7 5.66h22.77c3.42 0 5.54-4.3 5.54-7.46v-82.8c0-1.57 1.03-3.07 2.26-4.15 10.75-9.49 17.27-14.46 28.93-14.46 15.51 0 20.81 7.96 20.81 29.44v71.98c0 3.16 1.62 7.21 9.13 7.46h20.62c3.42 0 1.25-4.3 1.25-7.46v-75.95c0-32.89-10.73-53.49-40.88-53.49-18.71 0-30.74 11.71-42.72 18.41-2.03 1.11-2.7-1.69-2.7-1.69z"/></svg>