<?xml version="1.0" encoding="utf-8"?>
<!-- Generator: Adobe Illustrator 17.1.0, SVG Export Plug-In . SVG Version: 6.00 Build 0)  -->
<svg version="1.2" baseProfile="tiny" xmlns="http://www.w3.org/2000/svg" xmlns:xlink="http://www.w3.org/1999/xlink" x="0px"
	 y="0px" viewBox="0 0 600 200" xml:space="preserve">
<g id="Layer_2">
	<g>
		<path fill="none" d="M361.6,88.7c0,11,8.9,19.9,19.9,19.9s19.9-8.9,19.9-19.9c0-11-8.9-19.9-19.9-19.9S361.6,77.7,361.6,88.7z
			 M381.5,70.1c10.3,0,18.6,8.3,18.6,18.6c0,10.3-8.3,18.6-18.6,18.6c-10.3,0-18.6-8.3-18.6-18.6C362.9,78.4,371.2,70.1,381.5,70.1z
			"/>
		<circle fill="none" cx="381.5" cy="88.7" r="10.4"/>
		<circle fill="none" cx="424.7" cy="137.8" r="10.4"/>
		<path fill="none" d="M350.4,64.5c4.6,0,8.4-3.7,8.4-8.4c0-4.6-3.7-8.4-8.4-8.4s-8.4,3.7-8.4,8.4C342.1,60.8,345.8,64.5,350.4,64.5
			z M350.4,48.3c4.3,0,7.8,3.5,7.8,7.8c0,4.3-3.5,7.8-7.8,7.8s-7.8-3.5-7.8-7.8C342.6,51.8,346.1,48.3,350.4,48.3z"/>
		<circle fill="none" cx="300" cy="100" r="19.2"/>
		<path fill="none" d="M300,136.7c20.3,0,36.7-16.5,36.7-36.7S320.3,63.3,300,63.3s-36.7,16.5-36.7,36.7S279.7,136.7,300,136.7z
			 M300,65.8c18.9,0,34.2,15.3,34.2,34.2c0,18.9-15.3,34.2-34.2,34.2s-34.2-15.3-34.2-34.2C265.8,81.1,281.1,65.8,300,65.8z"/>
		<circle fill="none" cx="350.4" cy="56.1" r="4.4"/>
		<circle fill="none" cx="440.2" cy="182.6" r="4.4"/>
		<path fill="none" d="M453.1,28.7c-14.8,0-26.8,12-26.8,26.8c0,14.8,12,26.8,26.8,26.8c14.8,0,26.8-12,26.8-26.8
			C479.9,40.7,467.9,28.7,453.1,28.7z M453.1,80.4c-13.8,0-24.9-11.2-24.9-24.9c0-13.8,11.2-24.9,24.9-24.9
			c13.8,0,24.9,11.2,24.9,24.9C478,69.2,466.8,80.4,453.1,80.4z"/>
		<path fill="none" d="M367.8,125.6c-4.6,0-8.4,3.7-8.4,8.4c0,4.6,3.7,8.4,8.4,8.4c4.6,0,8.4-3.7,8.4-8.4
			C376.2,129.4,372.4,125.6,367.8,125.6z M367.8,141.8c-4.3,0-7.8-3.5-7.8-7.8c0-4.3,3.5-7.8,7.8-7.8s7.8,3.5,7.8,7.8
			C375.6,138.3,372.1,141.8,367.8,141.8z"/>
		<path fill="none" d="M404.7,137.8c0,11,8.9,19.9,19.9,19.9c11,0,19.9-8.9,19.9-19.9c0-11-8.9-19.9-19.9-19.9
			C413.7,117.8,404.7,126.8,404.7,137.8z M424.7,119.2c10.3,0,18.6,8.3,18.6,18.6s-8.3,18.6-18.6,18.6c-10.3,0-18.6-8.3-18.6-18.6
			S414.4,119.2,424.7,119.2z"/>
		<circle fill="none" cx="367.8" cy="134" r="4.4"/>
		<path fill="none" d="M440.2,174.3c-4.6,0-8.4,3.7-8.4,8.4c0,4.6,3.7,8.4,8.4,8.4c4.6,0,8.4-3.7,8.4-8.4
			C448.5,178,444.8,174.3,440.2,174.3z M440.2,190.4c-4.3,0-7.8-3.5-7.8-7.8c0-4.3,3.5-7.8,7.8-7.8c4.3,0,7.8,3.5,7.8,7.8
			C448,186.9,444.5,190.4,440.2,190.4z"/>
		<circle fill="none" cx="453.1" cy="55.5" r="14"/>
		<path fill="#63BAB1" d="M300,134.2c18.9,0,34.2-15.3,34.2-34.2c0-18.9-15.3-34.2-34.2-34.2s-34.2,15.3-34.2,34.2
			C265.8,118.9,281.1,134.2,300,134.2z M300,80.8c10.6,0,19.2,8.6,19.2,19.2s-8.6,19.2-19.2,19.2s-19.2-8.6-19.2-19.2
			S289.4,80.8,300,80.8z"/>
		<path fill="#63BAB1" d="M247.2,104.1c0.3,3.5,0.9,6.8,1.8,10.1c5.6-0.7,11.3,1.9,14.2,7.1c3,5.2,2.4,11.4-1,15.9
			c2.4,2.4,5,4.6,7.8,6.6c3.8-4.1,9.8-5.8,15.4-3.7c5.6,2,9.2,7.2,9.4,12.8c1.7,0.2,3.4,0.3,5.1,0.3s3.4-0.1,5.1-0.3
			c0.3-5.6,3.8-10.8,9.4-12.8c5.6-2,11.6-0.4,15.4,3.7c2.8-1.9,5.4-4.1,7.8-6.6c-3.4-4.5-4-10.7-1-15.9c3-5.2,8.7-7.8,14.2-7.1
			c0.9-3.2,1.5-6.6,1.8-10.1c-5.5-1.2-9.9-5.6-10.9-11.5c-1-5.9,1.6-11.5,6.4-14.6c-1.4-3.1-3.1-6.1-5.1-8.9c-5,2.6-11.2,2-15.8-1.8
			c-4.6-3.8-6.1-9.9-4.5-15.3c-3.1-1.5-6.3-2.6-9.6-3.5c-2.2,5.2-7.3,8.8-13.2,8.8s-11.1-3.6-13.2-8.8c-3.3,0.9-6.6,2-9.6,3.5
			c1.7,5.4,0.1,11.4-4.5,15.3c-4.6,3.8-10.8,4.3-15.8,1.8c-2,2.8-3.7,5.7-5.1,8.9c4.7,3,7.4,8.7,6.4,14.6
			C257.1,98.5,252.6,102.9,247.2,104.1z M300,63.3c20.3,0,36.7,16.5,36.7,36.7s-16.5,36.7-36.7,36.7s-36.7-16.5-36.7-36.7
			S279.7,63.3,300,63.3z"/>
		<path fill="#63BAB1" d="M352.6,199.2c0-10.6,8.6-19.2,19.2-19.2s19.2,8.6,19.2,19.2c0,0.3,0,0.6,0,0.8h15c0-0.3,0-0.6,0-0.8
			c0-18.9-15.3-34.2-34.2-34.2s-34.2,15.3-34.2,34.2c0,0.3,0,0.6,0,0.8h15C352.7,199.7,352.6,199.4,352.6,199.2z"/>
		<path fill="#63BAB1" d="M413.7,191.8c-1-5.9,1.6-11.5,6.4-14.6c-1.4-3.1-3.1-6.1-5.1-8.9c-5,2.6-11.2,2-15.8-1.8
			c-4.6-3.8-6.1-9.9-4.5-15.3c-3.1-1.5-6.3-2.6-9.6-3.5c-2.2,5.2-7.3,8.8-13.2,8.8s-11.1-3.6-13.2-8.8c-3.3,0.9-6.6,2-9.6,3.5
			c1.7,5.4,0.1,11.4-4.5,15.3c-4.6,3.8-10.8,4.3-15.8,1.8c-2,2.8-3.7,5.7-5.1,8.9c4.7,3,7.4,8.7,6.4,14.6c-0.6,3.3-2.3,6.1-4.6,8.2
			h9.7c0-0.3,0-0.6,0-0.8c0-20.3,16.5-36.7,36.7-36.7s36.7,16.5,36.7,36.7c0,0.3,0,0.6,0,0.8h9.7C416,197.9,414.3,195.1,413.7,191.8
			z"/>
		<path fill="#63BAB1" d="M371.8,33.4c18.6,0,33.7-14.9,34.2-33.4h-15c-0.4,10.2-8.8,18.4-19.2,18.4S353.1,10.2,352.7,0h-15
			C338.1,18.5,353.2,33.4,371.8,33.4z"/>
		<path fill="#63BAB1" d="M371.8,35.9c-20,0-36.3-16-36.7-35.9h-9.7c-1.8,1.6-4,2.7-6.4,3.3c0.3,3.5,0.9,6.8,1.8,10.1
			c5.6-0.7,11.3,1.9,14.2,7.1c3,5.2,2.4,11.4-1,15.9c2.4,2.4,5,4.6,7.8,6.6c3.8-4.1,9.8-5.8,15.4-3.7c5.6,2,9.2,7.2,9.4,12.8
			c1.7,0.2,3.4,0.3,5.1,0.3s3.4-0.1,5.1-0.3c0.3-5.6,3.8-10.8,9.4-12.8c5.6-2,11.6-0.4,15.4,3.7c2.8-1.9,5.4-4.1,7.8-6.6
			c-3.4-4.5-4-10.7-1-15.9c3-5.2,8.7-7.8,14.2-7.1c0.9-3.2,1.5-6.6,1.8-10.1c-2.4-0.5-4.6-1.7-6.4-3.3h-9.7
			C408.1,19.9,391.9,35.9,371.8,35.9z"/>
		<path fill="#63BAB1" d="M381.5,107.2c10.3,0,18.6-8.3,18.6-18.6c0-10.3-8.3-18.6-18.6-18.6c-10.3,0-18.6,8.3-18.6,18.6
			C362.9,98.9,371.2,107.2,381.5,107.2z M381.5,78.2c5.8,0,10.4,4.7,10.4,10.4c0,5.8-4.7,10.4-10.4,10.4c-5.8,0-10.4-4.7-10.4-10.4
			C371.1,82.9,375.7,78.2,381.5,78.2z"/>
		<path fill="#63BAB1" d="M366.7,71c-2.5,2.1-5.9,2.4-8.6,1c-1.1,1.5-2,3.1-2.8,4.8c2.6,1.6,4,4.7,3.5,7.9c-0.6,3.2-3,5.6-5.9,6.2
			c0.1,1.9,0.5,3.7,1,5.5c3-0.4,6.1,1,7.7,3.8c1.6,2.8,1.3,6.2-0.5,8.6c1.3,1.3,2.7,2.5,4.2,3.6c2.1-2.2,5.3-3.1,8.4-2
			c3,1.1,5,3.9,5.1,6.9c0.9,0.1,1.8,0.1,2.8,0.1s1.9,0,2.8-0.1c0.2-3,2.1-5.8,5.1-6.9c3-1.1,6.3-0.2,8.4,2c1.5-1.1,3-2.2,4.2-3.6
			c-1.8-2.4-2.2-5.8-0.5-8.6c1.6-2.8,4.7-4.2,7.7-3.8c0.5-1.8,0.8-3.6,1-5.5c-3-0.7-5.4-3.1-5.9-6.2c-0.6-3.2,0.9-6.3,3.5-7.9
			c-0.8-1.7-1.7-3.3-2.8-4.8c-2.7,1.4-6.1,1.1-8.6-1c-2.5-2.1-3.3-5.4-2.4-8.3c-1.7-0.8-3.4-1.4-5.2-1.9c-1.2,2.8-4,4.8-7.2,4.8
			c-3.2,0-6-2-7.2-4.8c-1.8,0.5-3.6,1.1-5.2,1.9C370,65.6,369.1,68.9,366.7,71z M381.5,68.7c11,0,19.9,8.9,19.9,19.9
			c0,11-8.9,19.9-19.9,19.9s-19.9-8.9-19.9-19.9C361.6,77.7,370.5,68.7,381.5,68.7z"/>
		<path fill="#63BAB1" d="M424.7,156.3c10.3,0,18.6-8.3,18.6-18.6s-8.3-18.6-18.6-18.6c-10.3,0-18.6,8.3-18.6,18.6
			S414.4,156.3,424.7,156.3z M424.7,127.4c5.8,0,10.4,4.7,10.4,10.4c0,5.8-4.7,10.4-10.4,10.4c-5.8,0-10.4-4.7-10.4-10.4
			C414.2,132,418.9,127.4,424.7,127.4z"/>
		<path fill="#63BAB1" d="M409.8,120.1c-2.5,2.1-5.9,2.4-8.6,1c-1.1,1.5-2,3.1-2.8,4.8c2.6,1.6,4,4.7,3.5,7.9
			c-0.6,3.2-3,5.6-5.9,6.2c0.1,1.9,0.5,3.7,1,5.5c3-0.4,6.1,1,7.7,3.8c1.6,2.8,1.3,6.2-0.5,8.6c1.3,1.3,2.7,2.5,4.2,3.6
			c2.1-2.2,5.3-3.1,8.4-2c3,1.1,5,3.9,5.1,6.9c0.9,0.1,1.8,0.1,2.8,0.1c0.9,0,1.9,0,2.8-0.1c0.2-3,2.1-5.8,5.1-6.9
			c3-1.1,6.3-0.2,8.4,2c1.5-1.1,3-2.2,4.2-3.6c-1.8-2.4-2.2-5.8-0.5-8.6c1.6-2.8,4.7-4.2,7.7-3.8c0.5-1.8,0.8-3.6,1-5.5
			c-3-0.7-5.4-3.1-5.9-6.2c-0.6-3.2,0.9-6.3,3.5-7.9c-0.8-1.7-1.7-3.3-2.8-4.8c-2.7,1.4-6.1,1.1-8.6-1c-2.5-2.1-3.3-5.4-2.4-8.3
			c-1.7-0.8-3.4-1.4-5.2-1.9c-1.2,2.8-4,4.8-7.2,4.8c-3.2,0-6-2-7.2-4.8c-1.8,0.5-3.6,1.1-5.2,1.9
			C413.2,114.7,412.3,118,409.8,120.1z M424.7,117.8c11,0,19.9,8.9,19.9,19.9c0,11-8.9,19.9-19.9,19.9c-11,0-19.9-8.9-19.9-19.9
			C404.7,126.8,413.7,117.8,424.7,117.8z"/>
		<path fill="#63BAB1" d="M453.1,30.5c-13.8,0-24.9,11.2-24.9,24.9c0,13.8,11.2,24.9,24.9,24.9c13.8,0,24.9-11.2,24.9-24.9
			C478,41.7,466.8,30.5,453.1,30.5z M453.1,69.5c-7.7,0-14-6.3-14-14c0-7.7,6.3-14,14-14c7.7,0,14,6.3,14,14
			C467.1,63.2,460.8,69.5,453.1,69.5z"/>
		<path fill="#63BAB1" d="M483.6,50.1c-0.8-4.3,1.2-8.4,4.6-10.6c-1-2.3-2.3-4.4-3.7-6.5c-3.6,1.9-8.2,1.5-11.5-1.3
			c-3.3-2.8-4.5-7.2-3.3-11.1c-2.2-1.1-4.6-1.9-7-2.6c-1.6,3.8-5.3,6.4-9.7,6.4s-8.1-2.6-9.7-6.4c-2.4,0.6-4.8,1.5-7,2.6
			c1.2,3.9,0.1,8.3-3.3,11.1c-3.3,2.8-7.9,3.2-11.5,1.3c-1.4,2-2.7,4.2-3.7,6.5c3.4,2.2,5.4,6.3,4.6,10.6c-0.8,4.3-4,7.5-8,8.4
			c0.2,2.5,0.6,5,1.3,7.3c4.1-0.5,8.2,1.4,10.4,5.2c2.2,3.8,1.7,8.3-0.7,11.6c1.7,1.8,3.7,3.4,5.7,4.8c2.8-3,7.2-4.2,11.3-2.7
			c4.1,1.5,6.7,5.2,6.9,9.3c1.2,0.1,2.5,0.2,3.7,0.2c1.3,0,2.5-0.1,3.7-0.2c0.2-4.1,2.8-7.8,6.9-9.3c4.1-1.5,8.5-0.3,11.3,2.7
			c2.1-1.4,4-3,5.7-4.8c-2.5-3.3-2.9-7.8-0.7-11.6c2.2-3.8,6.3-5.7,10.4-5.2c0.7-2.4,1.1-4.8,1.3-7.3
			C487.6,57.6,484.4,54.4,483.6,50.1z M453.1,82.3c-14.8,0-26.8-12-26.8-26.8c0-14.8,12-26.8,26.8-26.8c14.8,0,26.8,12,26.8,26.8
			C479.9,70.3,467.9,82.3,453.1,82.3z"/>
		<path fill="#63BAB1" d="M350.4,63.9c4.3,0,7.8-3.5,7.8-7.8c0-4.3-3.5-7.8-7.8-7.8s-7.8,3.5-7.8,7.8
			C342.6,60.4,346.1,63.9,350.4,63.9z M350.4,51.8c2.4,0,4.4,2,4.4,4.4s-2,4.4-4.4,4.4s-4.4-2-4.4-4.4S348,51.8,350.4,51.8z"/>
		<path fill="#63BAB1" d="M338.4,57.1c0.1,0.8,0.2,1.6,0.4,2.3c1.3-0.2,2.6,0.4,3.2,1.6c0.7,1.2,0.5,2.6-0.2,3.6
			c0.5,0.6,1.1,1.1,1.8,1.5c0.9-0.9,2.2-1.3,3.5-0.8c1.3,0.5,2.1,1.6,2.1,2.9c0.4,0,0.8,0.1,1.2,0.1s0.8,0,1.2-0.1
			c0.1-1.3,0.9-2.4,2.1-2.9c1.3-0.5,2.7-0.1,3.5,0.8c0.6-0.4,1.2-0.9,1.8-1.5c-0.8-1-0.9-2.4-0.2-3.6c0.7-1.2,2-1.8,3.2-1.6
			c0.2-0.7,0.3-1.5,0.4-2.3c-1.2-0.3-2.3-1.3-2.5-2.6c-0.2-1.3,0.4-2.6,1.4-3.3c-0.3-0.7-0.7-1.4-1.2-2c-1.1,0.6-2.6,0.5-3.6-0.4
			c-1-0.9-1.4-2.3-1-3.5c-0.7-0.3-1.4-0.6-2.2-0.8c-0.5,1.2-1.7,2-3,2s-2.5-0.8-3-2c-0.8,0.2-1.5,0.5-2.2,0.8c0.4,1.2,0,2.6-1,3.5
			c-1,0.9-2.5,1-3.6,0.4c-0.5,0.6-0.8,1.3-1.2,2c1.1,0.7,1.7,2,1.4,3.3C340.6,55.8,339.6,56.8,338.4,57.1z M350.4,47.8
			c4.6,0,8.4,3.7,8.4,8.4c0,4.6-3.7,8.4-8.4,8.4s-8.4-3.7-8.4-8.4C342.1,51.5,345.8,47.8,350.4,47.8z"/>
		<path fill="#63BAB1" d="M367.8,126.2c-4.3,0-7.8,3.5-7.8,7.8c0,4.3,3.5,7.8,7.8,7.8s7.8-3.5,7.8-7.8
			C375.6,129.7,372.1,126.2,367.8,126.2z M367.8,138.4c-2.4,0-4.4-2-4.4-4.4c0-2.4,2-4.4,4.4-4.4s4.4,2,4.4,4.4
			C372.2,136.4,370.2,138.4,367.8,138.4z"/>
		<path fill="#63BAB1" d="M379.5,137.2c0.2-0.7,0.3-1.5,0.4-2.3c-1.2-0.3-2.3-1.3-2.5-2.6c-0.2-1.3,0.4-2.6,1.4-3.3
			c-0.3-0.7-0.7-1.4-1.2-2c-1.1,0.6-2.6,0.5-3.6-0.4c-1-0.9-1.4-2.3-1-3.5c-0.7-0.3-1.4-0.6-2.2-0.8c-0.5,1.2-1.7,2-3,2
			s-2.5-0.8-3-2c-0.8,0.2-1.5,0.5-2.2,0.8c0.4,1.2,0,2.6-1,3.5c-1,0.9-2.5,1-3.6,0.4c-0.5,0.6-0.8,1.3-1.2,2c1.1,0.7,1.7,2,1.4,3.3
			c-0.2,1.3-1.2,2.3-2.5,2.6c0.1,0.8,0.2,1.6,0.4,2.3c1.3-0.2,2.6,0.4,3.2,1.6c0.7,1.2,0.5,2.6-0.2,3.6c0.5,0.6,1.1,1.1,1.8,1.5
			c0.9-0.9,2.2-1.3,3.5-0.8c1.3,0.5,2.1,1.6,2.1,2.9c0.4,0,0.8,0.1,1.2,0.1s0.8,0,1.2-0.1c0.1-1.3,0.9-2.4,2.1-2.9
			c1.3-0.5,2.7-0.1,3.5,0.8c0.6-0.4,1.2-0.9,1.8-1.5c-0.8-1-0.9-2.4-0.2-3.6C376.9,137.7,378.2,137.1,379.5,137.2z M367.8,142.4
			c-4.6,0-8.4-3.7-8.4-8.4c0-4.6,3.7-8.4,8.4-8.4c4.6,0,8.4,3.7,8.4,8.4C376.2,138.6,372.4,142.4,367.8,142.4z"/>
		<path fill="#63BAB1" d="M440.2,174.8c-4.3,0-7.8,3.5-7.8,7.8c0,4.3,3.5,7.8,7.8,7.8c4.3,0,7.8-3.5,7.8-7.8
			C448,178.3,444.5,174.8,440.2,174.8z M440.2,187c-2.4,0-4.4-2-4.4-4.4c0-2.4,2-4.4,4.4-4.4s4.4,2,4.4,4.4
			C444.5,185,442.6,187,440.2,187z"/>
		<path fill="#63BAB1" d="M451.8,185.9c0.2-0.7,0.3-1.5,0.4-2.3c-1.2-0.3-2.3-1.3-2.5-2.6c-0.2-1.3,0.4-2.6,1.4-3.3
			c-0.3-0.7-0.7-1.4-1.2-2c-1.1,0.6-2.6,0.5-3.6-0.4c-1-0.9-1.4-2.3-1-3.5c-0.7-0.3-1.4-0.6-2.2-0.8c-0.5,1.2-1.7,2-3,2
			s-2.5-0.8-3-2c-0.8,0.2-1.5,0.5-2.2,0.8c0.4,1.2,0,2.6-1,3.5c-1,0.9-2.5,1-3.6,0.4c-0.5,0.6-0.8,1.3-1.2,2c1.1,0.7,1.7,2,1.4,3.3
			c-0.2,1.3-1.2,2.3-2.5,2.6c0.1,0.8,0.2,1.6,0.4,2.3c1.3-0.2,2.6,0.4,3.2,1.6c0.7,1.2,0.5,2.6-0.2,3.6c0.5,0.6,1.1,1.1,1.8,1.5
			c0.9-0.9,2.2-1.3,3.5-0.8c1.3,0.5,2.1,1.6,2.1,2.9c0.4,0,0.8,0.1,1.2,0.1s0.8,0,1.2-0.1c0.1-1.3,0.9-2.4,2.1-2.9
			c1.3-0.5,2.7-0.1,3.5,0.8c0.6-0.4,1.2-0.9,1.8-1.5c-0.8-1-0.9-2.4-0.2-3.6C449.2,186.3,450.5,185.7,451.8,185.9z M440.2,191
			c-4.6,0-8.4-3.7-8.4-8.4c0-4.6,3.7-8.4,8.4-8.4c4.6,0,8.4,3.7,8.4,8.4C448.5,187.2,444.8,191,440.2,191z"/>
	</g>
</g>
</svg>
