<svg xmlns="http://www.w3.org/2000/svg" viewBox="0 0 811 270" enable-background="new 0 0 811 270"><style type="text/css">.style1{fill:#fff;}</style><path id="Skylink" class="style1" d="M340.4 162.1c-.6 1.8-3.1 1.8-3.8.1l-34-85.3c-.9-2.3-3.2-1.5-5.8-1.5h-38.6c-1.9 0-3.7.3-4.8 1.7l-42.7 48.6c-.4.5-4.1 5.1-4.1 2.7-.3-2.3-.6-7.2-.6-8.1V80.6c0-3.2-6.6-5.2-10-5.2h-19.2c-3.4 0-3.8 2.1-3.8 5.2v116.3c0 3.2-.6 7.5 2.8 7.5h23.6c5.8-.2 6.6-4.3 6.6-7.5v-10.4c.2-5.8-1.4-17.6-.4-18.7l14-15.8c2.8-2.9 7.4-2.5 9.5.9l29.8 47.7c1.1 1.7 2.9 3.7 5.1 3.7h21.1c4.9 0 7.9-5.9 5.2-9.7l-44.6-65.3c-1.5-2.1-2.1-5.1-.3-7L265 99.8l2.1-2.6c2.5-2.5 8.8-5.8 12.2.2l42.9 100.7c.5 1.2.6 3.1.2 4.3l-2 6.6c-4.6 13-13.2 22.4-28.1 22.4-1.4 0-2.8-.1-4.3-.4-3.3-.6-6.4 1.3-7.2 4.3l-3.2 12.9c-.8 3.1 1.3 6.2 4.7 6.9 3.5.7 7.5 1.1 12.3 1.1 30.7 0 45.4-18.3 57.1-47.7l48.3-127c1.4-3.7-1.6-6.1-5.9-6.1h-18.6c-2.7 0-5.1.2-5.9 2.6l-2.5 7.1-26.7 77zM491 186.4c-.1-4.9-3-6-7.8-6-46.4.2-48.1.5-48.1-11.2l-.1-88.7c0-3.2.4-5.1-3-5.1h-20.6c-3.4 0-5.4 1.9-5.4 5.1v103.3c-.3 25.7-2.2 22.1 31.8 22.1 4.7 0 44.6.3 47.9-.4 3.2-.6 5.4-3.2 5.4-6.2v-12.9zm-367.2-78.9l-25.3-9.8C83 91.8 68.7 86.8 68.7 73.2c0-12.7 11.5-20.4 29.3-20.4 14 0 25.6 4.2 36.1 11.4 2.7 1.8 6.4 1.4 8.5-1l9.7-11c2.1-2.4 1.8-5.9-.8-7.9C137.2 33 117.9 26 97.9 26 61.4 26 33 47.2 33 74.8c0 25.5 21.2 39 39.9 46.1l25.6 10.3c17.2 6.6 28.3 11.1 28.3 25.5 0 13.5-10.8 22.3-31.7 22.3-15.6 0-31.7-6.3-44.5-15.9-2.6-2-6.5-1.7-8.6.7l-11.3 12.3c-2.2 2.4-1.9 6 .7 8.1C48.6 198 71 205.9 94.2 205.9c42.2 0 67.5-23.3 67.5-51.5 0-25.2-15.5-38.2-37.9-46.9zm669.6 87.2l-44.6-65.3c-1.5-2.1-1.3-5 .5-6.9l36.8-39c3.4-3.7.5-8-4.7-8h-19.9c-1.9 0-3.7.3-4.8 1.7l-50.4 57.3h-.3V75.1c0-3.2-1.1-6.6-6.9-6.7H672.3c-8.7.4-7.8.4-4.8 5.5 4.8 8.1 4.6 21.4 4.5 28v98.7c0 3.8 3.9 3.6 3.9 3.6l23.2.2c6.5-.4 6.5-.4 6.9-7.5v-25.3c0-1.4.2-2.7 1.2-3.8L722 152c2.8-2.9 7.8-2.5 9.9.9l30 47.7c1.1 1.7 3.1 3.7 5.3 3.7h21.1c4.8.1 7.7-5.8 5.1-9.6zM529 80c0-3.2-4.4-4.6-7.8-4.6h-19.4c-3.4 0-2.8 1.4-2.8 4.6v120.9c0 3.2-.6 3.5 2.8 3.5h19.4c5.7 0 7.8-2.1 7.8-5.2V80zm43.7 4.2l-1.1-7c-.4-2.9-3-1.8-6.2-1.8h-17c-3.4 0-6.4-.4-6.4 2.8v120.6c-.1 6.5-.9 5.4 5.7 5.7h22.8c3.4 0 5.5-4.3 5.5-7.5v-82.8c0-1.6 1-3.1 2.3-4.2 10.8-9.5 17.3-14.5 28.9-14.5 15.5 0 20.8 8 20.8 29.4v72c0 3.2 1.6 7.2 9.1 7.5h20.6c3.4 0 1.3-4.3 1.3-7.5v-76c0-32.9-10.7-53.5-40.9-53.5-18.7 0-30.7 11.7-42.7 18.4-2 1.2-2.7-1.6-2.7-1.6z"/></svg>