<svg id="Logo_Artwork" data-name="Logo Artwork" xmlns="http://www.w3.org/2000/svg" viewBox="0 0 663 249">
  <title>TemasysSkylinkJS-2017-V1</title>
  <g id="_SkylinkLogo" data-name="@SkylinkLogo">
    <g id="_SykylinkText" data-name="@SykylinkText">
      <path d="M92.56,154.9c7.81,6,15.26,9.76,24.13,9.76,9.4,0,13.84-4.43,13.84-10.47,0-7.27-9.4-10.47-18.63-14-11.53-4.26-24.48-10.82-24.48-25.37,0-15.26,12.24-26.08,31.75-26.08,12.06,0,21.82,5,28.91,10.47l-9.4,12.42c-6-4.43-12.24-7.45-19.16-7.45-8.69,0-12.77,4.08-12.77,9.58,0,6.74,8.69,9.58,18.09,12.95,11.89,4.43,25,10.11,25,26.43,0,14.9-11.89,27-33.88,27-11.89,0-24.48-5.14-33-12.06Z" fill="#424242"/>
      <path d="M389.47,90.86h16.85l1.42,11.71h.71c7.81-7.63,16.67-13.84,28.56-13.84,18.63,0,26.79,12.59,26.79,34.59V178h-20.4V126c0-14.37-4.08-19.69-13.66-19.69-7.63,0-12.59,3.72-19.87,10.82V178h-20.4Z" fill="#424242"/>
      <path d="M272.25,133.61c-2.13,7.81-4.43,16.5-6.56,24.48H265c-2.66-8.16-5.14-16.85-7.63-24.48L242.32,91H210.23l-32.17,39.95h-.53V91h-20v87h20V155.78l13.66-15.61L213.54,178h22.17l-32.82-51.62,22.22-26.45,30.64,77-1.6,5.5c-2.84,8.69-8.16,14.9-17.38,14.9a21.4,21.4,0,0,1-6.21-1.24l-3.73,16a33.87,33.87,0,0,0,11.35,1.77c19,0,28-12.24,35.3-31.93L305,91H285.33Z" fill="#424242"/>
      <path d="M354,161.32v17c-10,.59-21.58.59-26.37.59-14.55,0-18.13-8.22-18.13-23.3V91h20.4v65.67c.24,4.65,4.78,4.65,10.28,4.65Z" fill="#424242"/>
      <rect x="360.73" y="91" width="20.4" height="86.95" fill="#424242"/>
      <polygon points="523.81 91 491.64 130.95 491.11 130.95 491.11 91 471.06 91 471.06 177.96 491.11 177.96 491.11 155.78 504.77 140.17 527.12 177.96 549.29 177.96 516.48 126.34 546.16 91 523.81 91" fill="#424242"/>
      <g>
        <path d="M554.29,127.64c1.81,3.18,4.2,4.7,6.58,4.7,3.83,0,5.86-2,5.86-8.25V93.5h10.7V125c0,9.11-4.7,16.56-15.12,16.56-7.23,0-12-2.82-15.26-8.53Z" fill="#424242"/>
        <path d="M591.25,127.42c3.33,2.89,7.67,4.92,11.57,4.92,4.41,0,6.58-1.74,6.58-4.56s-2.68-3.91-6.8-5.64l-6.08-2.6c-4.92-2-9.55-6-9.55-12.87,0-7.81,7-14,16.78-14A21.83,21.83,0,0,1,619,98.85l-5.35,6.73c-3.11-2.39-6.08-3.76-9.84-3.76s-6,1.59-6,4.27c0,2.89,3.11,3.91,7.23,5.57l6,2.46c5.71,2.31,9.33,6.15,9.33,12.8,0,7.81-6.51,14.61-17.72,14.61a26.13,26.13,0,0,1-17.5-6.8Z" fill="#424242"/>
      </g>
    </g>
    <g id="_TemasysText" data-name="@TemasysText">
      <path d="M49.88,32.06a21.65,21.65,0,0,0-.31,3.68,22.7,22.7,0,0,0,.31,3.82H62.76V82.11c.73.09,1.47.16,2.18.2a36.22,36.22,0,0,0,5,0l2-.18V39.56H84.8a22.71,22.71,0,0,0,.31-3.82,21.68,21.68,0,0,0-.31-3.68Z" fill="#00aaa4"/>
      <path d="M111.67,50.46a14.49,14.49,0,0,0-4.88-3.54,15.86,15.86,0,0,0-6.57-1.3,17.69,17.69,0,0,0-7.46,1.47,15.45,15.45,0,0,0-5.34,4,17.25,17.25,0,0,0-3.26,6,24.38,24.38,0,0,0-1.11,7.43,24.62,24.62,0,0,0,1.07,7.43,15.32,15.32,0,0,0,3.28,5.78,15,15,0,0,0,5.74,3.79,23.79,23.79,0,0,0,8.57,1.38A34.64,34.64,0,0,0,113.59,81a16.65,16.65,0,0,0-.6-3.64,17.22,17.22,0,0,0-1-2.78,29.42,29.42,0,0,1-4.37,1.15,28.42,28.42,0,0,1-5.08.47A12.75,12.75,0,0,1,95,74.11c-2-1.4-3.08-3.66-3.28-6.71l0-.72h23.84c.06-.42.11-.92.15-1.49.07-.86.1-1.74.1-2.62a21.51,21.51,0,0,0-1-6.75A15,15,0,0,0,111.67,50.46ZM91.7,61l.07-.74a10.07,10.07,0,0,1,2.39-6A7.71,7.71,0,0,1,100.08,52a6.67,6.67,0,0,1,5.41,2.35,9.68,9.68,0,0,1,2,5.93l0,.7Z" fill="#00aaa4"/>
      <path d="M208.44,49c-3.63-3.09-9.31-4.12-16.91-2.92a37.31,37.31,0,0,0-5.71,1.39,12.35,12.35,0,0,0,.46,3.25,17.68,17.68,0,0,0,1.18,2.87,25.69,25.69,0,0,1,7.88-1.35,23.27,23.27,0,0,1,3.34.22,7.21,7.21,0,0,1,2.71.91,5,5,0,0,1,1.81,1.94,6.59,6.59,0,0,1,.65,3.1V60l-.73-.06c-1.63-.14-3.15-.21-4.51-.21a26.88,26.88,0,0,0-5.57.59,16.16,16.16,0,0,0-5,1.92,10.69,10.69,0,0,0-3.56,3.49,10,10,0,0,0-1.36,5.39,12.24,12.24,0,0,0,1.11,5.48,9.45,9.45,0,0,0,3.13,3.6,13.74,13.74,0,0,0,5,2,31.83,31.83,0,0,0,6.53.63,40.81,40.81,0,0,0,7.93-.7c2.12-.42,4-.87,5.52-1.33V59.93C212.38,54.93,211.06,51.26,208.44,49Zm-4.56,26.74-.55.1-1.87.32a13.69,13.69,0,0,1-2.25.19q-1,0-2.23-.11a8.5,8.5,0,0,1-2.56-.62A5.34,5.34,0,0,1,192.26,74a5.18,5.18,0,0,1-.93-3.27,5,5,0,0,1,2.35-4.6,11.22,11.22,0,0,1,5.88-1.35,18.22,18.22,0,0,1,1.85.11q1,.11,1.89.26l.56.09Z" fill="#00aaa4"/>
      <path d="M245.67,75.7a10.52,10.52,0,0,0,1-4.63,12.33,12.33,0,0,0-.6-4.13,7.89,7.89,0,0,0-1.64-2.76,9.44,9.44,0,0,0-2.56-1.9,19.57,19.57,0,0,0-3.48-1.34l-4.07-1.22a11.8,11.8,0,0,1-2.93-1.3,3.09,3.09,0,0,1-1.26-2.77,3.22,3.22,0,0,1,1.7-3,8.48,8.48,0,0,1,4.11-.83,18.12,18.12,0,0,1,4.52.56,29.76,29.76,0,0,1,3.29,1,20.43,20.43,0,0,0,1.68-6,34.4,34.4,0,0,0-4.9-1.3,29.89,29.89,0,0,0-5.37-.49c-4.3,0-7.72,1-10.18,2.92a9.5,9.5,0,0,0-3.64,8c0,2.8.69,4.91,2.05,6.27a13.53,13.53,0,0,0,6,3.22l4.43,1.29a10.62,10.62,0,0,1,3.1,1.42,4,4,0,0,1,.46,5.42,5.86,5.86,0,0,1-1.89,1.37,8.62,8.62,0,0,1-2.36.7,15.38,15.38,0,0,1-2.28.19,21,21,0,0,1-4.54-.48,29.23,29.23,0,0,1-4-1.19,23.9,23.9,0,0,0-1.1,3.14,20.22,20.22,0,0,0-.61,3.26c.79.29,1.55.54,2.25.73s1.68.43,2.55.59a24.35,24.35,0,0,0,2.67.35c.93.07,2,.11,3.09.11a21.53,21.53,0,0,0,6.57-.93,15.32,15.32,0,0,0,4.89-2.53A10.73,10.73,0,0,0,245.67,75.7Z" fill="#00aaa4"/>
      <path d="M273,95.53a17.61,17.61,0,0,0,2-4.33l13.55-44.87a15.74,15.74,0,0,0-2.16-.25,33.79,33.79,0,0,0-6.58.31l-7.1,26.25c-.22,1.35-1.08,1.85-1.81,1.85-1.14,0-2.17-1.12-2.51-2.72-1.1-3.68-5.37-22.27-6.09-25.4a15.09,15.09,0,0,0-2.18-.25c-1.73-.08-3.27-.09-5.19,0a14.18,14.18,0,0,0-2.06.24L261,74c1.62,7.5,6.51,8.08,8,8.08h.33l1-.08-1.47,5.36a13.14,13.14,0,0,1-1.36,3.39,6,6,0,0,1-1.74,1.88,4.65,4.65,0,0,1-2,.75,13.9,13.9,0,0,1-4-.08c-.46-.08-.85-.16-1.2-.24a23.54,23.54,0,0,0-.72,2.31,12.49,12.49,0,0,0-.37,3.08V99c.87.22,1.77.41,2.68.55a22.37,22.37,0,0,0,7.36-.14,8.91,8.91,0,0,0,3.12-1.29A9.12,9.12,0,0,0,273,95.53Z" fill="#00aaa4"/>
      <path d="M317.17,75.7a10.55,10.55,0,0,0,1-4.63,12.28,12.28,0,0,0-.6-4.12A7.91,7.91,0,0,0,316,64.17a9.38,9.38,0,0,0-2.56-1.9,19.47,19.47,0,0,0-3.48-1.34l-4.08-1.22a11.91,11.91,0,0,1-2.93-1.3,3.1,3.1,0,0,1-1.26-2.77,3.22,3.22,0,0,1,1.7-3,8.47,8.47,0,0,1,4.11-.83,18.13,18.13,0,0,1,4.52.56,29.29,29.29,0,0,1,3.29,1,20.5,20.5,0,0,0,1.68-6,34.31,34.31,0,0,0-4.9-1.3,29.89,29.89,0,0,0-5.37-.49c-4.29,0-7.72,1-10.18,2.92a9.5,9.5,0,0,0-3.63,8c0,2.8.69,4.91,2.05,6.27a13.49,13.49,0,0,0,6,3.22l4.43,1.29a10.67,10.67,0,0,1,3.1,1.42,4,4,0,0,1,.46,5.42A5.84,5.84,0,0,1,307,75.49a8.7,8.7,0,0,1-2.36.7,15.45,15.45,0,0,1-2.28.19,21,21,0,0,1-4.53-.48,29.31,29.31,0,0,1-4-1.19,23.79,23.79,0,0,0-1.1,3.14,20.32,20.32,0,0,0-.61,3.26c.79.29,1.55.54,2.25.73s1.69.43,2.55.59a24.39,24.39,0,0,0,2.67.35c.93.07,2,.11,3.09.11a21.58,21.58,0,0,0,6.58-.93,15.28,15.28,0,0,0,4.89-2.53A10.8,10.8,0,0,0,317.17,75.7Z" fill="#00aaa4"/>
      <path d="M175.32,57.54a13.63,13.63,0,0,0-1.69-6c-2.22-3.92-6.2-5.91-11.81-5.91h-.28c-1.35,0-8.29.24-11.71,5l-.54.75-.54-.75c-3.43-4.72-10.36-5-11.71-5h-.26c-4.34,0-7.71,1.19-10,3.54a13,13,0,0,0-3.49,8.38l0,24.66a15.49,15.49,0,0,0,4.19.55,19.7,19.7,0,0,0,4.6-.56V61c0-.12-.24-4.06,1.86-6.3a4.8,4.8,0,0,1,3.65-1.5,6.88,6.88,0,0,1,5.23,2,9.21,9.21,0,0,1,2.11,6.23l0,20.74a18.67,18.67,0,0,0,4.08.48h.21l.21.67v-.67h.21a18.7,18.7,0,0,0,4.08-.48l0-20.77a9.19,9.19,0,0,1,2.11-6.19,6.88,6.88,0,0,1,5.23-2,4.81,4.81,0,0,1,3.65,1.5c2.1,2.24,1.87,6.18,1.86,6.35l0,21.15a19.7,19.7,0,0,0,4.6.56h0a15.49,15.49,0,0,0,4.19-.55Z" fill="#00aaa4"/>
    </g>
  </g>
</svg>
