<svg id="Layer_1" data-name="Layer 1" xmlns="http://www.w3.org/2000/svg" viewBox="0 0 538.42 173.26"><defs><style>.cls-1{fill:#59595b;}.cls-2{fill:#00aaa2;}.cls-3{fill:#ec2426;}</style></defs><title>Temasys-White</title><path class="cls-1" d="M.53,58.53A36.9,36.9,0,0,0,0,64.76a38.91,38.91,0,0,0,.53,6.48H22.36v72.07c1.24.16,2.48.27,3.7.34a61.25,61.25,0,0,0,8.48-.06c1.11-.09,2.21-.2,3.31-.31v-72H59.68a37.94,37.94,0,0,0,.54-6.48,36.06,36.06,0,0,0-.54-6.23Z"/><path class="cls-1" d="M105.21,89.7a24.53,24.53,0,0,0-8.27-6A26.8,26.8,0,0,0,85.81,81.5,30,30,0,0,0,73.17,84a26.11,26.11,0,0,0-9,6.77,29.3,29.3,0,0,0-5.52,10.13,41.18,41.18,0,0,0-1.88,12.59,41.68,41.68,0,0,0,1.82,12.59,26,26,0,0,0,5.55,9.79,25.56,25.56,0,0,0,9.73,6.41,40.43,40.43,0,0,0,14.52,2.34,58.81,58.81,0,0,0,20.1-3.26,27.82,27.82,0,0,0-1-6.16,29.92,29.92,0,0,0-1.75-4.71,50.92,50.92,0,0,1-7.41,2,48.14,48.14,0,0,1-8.6.8c-5.22,0-9.51-1.17-12.75-3.48s-5.21-6.19-5.55-11.36l-.08-1.22h40.37c.1-.71.18-1.55.26-2.52.12-1.45.18-2.94.18-4.44a36.34,36.34,0,0,0-1.76-11.43A25.39,25.39,0,0,0,105.21,89.7ZM71.38,107.48l.12-1.24c.42-4.35,1.78-7.79,4-10.22s5.68-3.75,10-3.75a11.29,11.29,0,0,1,9.15,4,16.37,16.37,0,0,1,3.47,10l0,1.18Z"/><path class="cls-1" d="M269.12,87.26c-6.14-5.24-15.77-7-28.63-4.93a62.13,62.13,0,0,0-9.67,2.35,20.71,20.71,0,0,0,.79,5.5,30,30,0,0,0,2,4.86A43.76,43.76,0,0,1,247,92.75a39.28,39.28,0,0,1,5.66.38,12.3,12.3,0,0,1,4.6,1.54A8.37,8.37,0,0,1,260.29,98a11.16,11.16,0,0,1,1.1,5.25v2.69l-1.23-.1c-2.77-.24-5.34-.36-7.64-.36a45.28,45.28,0,0,0-9.44,1,27.28,27.28,0,0,0-8.41,3.25,18,18,0,0,0-6,5.91,16.9,16.9,0,0,0-2.3,9.13,20.79,20.79,0,0,0,1.87,9.28,16,16,0,0,0,5.31,6.1,23.16,23.16,0,0,0,8.41,3.45A54.18,54.18,0,0,0,253,144.61a69.18,69.18,0,0,0,13.44-1.19c3.58-.71,6.72-1.47,9.36-2.26V105.74C275.8,97.27,273.55,91.05,269.12,87.26Zm-7.73,45.3-.93.17-3.16.55a23.32,23.32,0,0,1-3.81.32c-1.08,0-2.34-.07-3.79-.19a14.25,14.25,0,0,1-4.33-1.06,9,9,0,0,1-3.66-2.82,8.8,8.8,0,0,1-1.57-5.54c0-3.55,1.34-6.17,4-7.79,2.47-1.52,5.82-2.29,10-2.29a31.32,31.32,0,0,1,3.14.18c1.15.13,2.22.27,3.21.44l.95.16Z"/><path class="cls-1" d="M332.18,132.44a17.8,17.8,0,0,0,1.76-7.84,21.06,21.06,0,0,0-1-7,13.44,13.44,0,0,0-2.78-4.68,16,16,0,0,0-4.35-3.22,32.58,32.58,0,0,0-5.89-2.27L313,105.38a20.24,20.24,0,0,1-5-2.2,5.25,5.25,0,0,1-2.14-4.69,5.44,5.44,0,0,1,2.89-5,14.31,14.31,0,0,1,7-1.41,30.77,30.77,0,0,1,7.65.94A52.91,52.91,0,0,1,329,94.74,31.92,31.92,0,0,0,330.72,90a33.91,33.91,0,0,0,1.09-5.43,58,58,0,0,0-8.3-2.2,50.41,50.41,0,0,0-9.1-.82c-7.28,0-13.08,1.66-17.25,5S291,94.13,291,99.94c0,4.73,1.17,8.31,3.47,10.62A23,23,0,0,0,304.57,116l7.5,2.17a18.25,18.25,0,0,1,5.24,2.41,6.76,6.76,0,0,1,.78,9.18,9.8,9.8,0,0,1-3.21,2.33,15,15,0,0,1-4,1.18,25.93,25.93,0,0,1-3.86.32,35.65,35.65,0,0,1-7.68-.82,49.72,49.72,0,0,1-6.71-2,40.4,40.4,0,0,0-1.86,5.32,34.26,34.26,0,0,0-1,5.52c1.34.5,2.62.91,3.81,1.24,1.4.39,2.85.73,4.32,1a40.41,40.41,0,0,0,4.52.58c1.57.12,3.34.18,5.24.18A36.35,36.35,0,0,0,318.77,143a25.6,25.6,0,0,0,8.28-4.28A18.11,18.11,0,0,0,332.18,132.44Z"/><path class="cls-1" d="M378.52,166a30.18,30.18,0,0,0,3.31-7.34l23-76a27.37,27.37,0,0,0-3.66-.41A57.57,57.57,0,0,0,390,82.8l-12,44.46c-.38,2.29-1.83,3.14-3.07,3.14-1.92,0-3.67-1.9-4.25-4.61-1.86-6.24-9.1-37.73-10.31-43a26.75,26.75,0,0,0-3.7-.42c-2.93-.14-5.54-.15-8.8-.06a22.67,22.67,0,0,0-3.48.4l13.76,46.82c2.75,12.71,11,13.69,13.51,13.69.28,0,.47,0,.55,0l1.63-.14-2.48,9.07a21.94,21.94,0,0,1-2.31,5.74,10.08,10.08,0,0,1-2.94,3.19,7.93,7.93,0,0,1-3.33,1.26,23.48,23.48,0,0,1-6.85-.12c-.77-.13-1.44-.27-2-.41-.46,1.27-.87,2.57-1.21,3.91a21,21,0,0,0-.63,5.22v1c1.48.38,3,.69,4.54.93a37.92,37.92,0,0,0,12.46-.23,15.1,15.1,0,0,0,5.28-2.19A15.46,15.46,0,0,0,378.52,166Z"/><path class="cls-1" d="M453.3,132.44a17.79,17.79,0,0,0,1.75-7.84,20.81,20.81,0,0,0-1-7,13.37,13.37,0,0,0-2.78-4.69,16,16,0,0,0-4.34-3.21,33,33,0,0,0-5.9-2.27l-6.9-2.06a20.24,20.24,0,0,1-5-2.2A5.25,5.25,0,0,1,427,98.49a5.44,5.44,0,0,1,2.89-5,14.27,14.27,0,0,1,7-1.41,30.85,30.85,0,0,1,7.66.94,52.17,52.17,0,0,1,5.57,1.77,34.18,34.18,0,0,0,2.84-10.22,57.54,57.54,0,0,0-8.29-2.2,50.44,50.44,0,0,0-9.11-.82c-7.27,0-13.07,1.66-17.24,5s-6.15,7.68-6.15,13.49c0,4.74,1.16,8.31,3.47,10.61A22.84,22.84,0,0,0,425.68,116l7.5,2.17a18.45,18.45,0,0,1,5.25,2.41,6.76,6.76,0,0,1,.78,9.18,10,10,0,0,1-3.2,2.33,15.22,15.22,0,0,1-4,1.18,25.93,25.93,0,0,1-3.86.32,35.59,35.59,0,0,1-7.68-.82,49.72,49.72,0,0,1-6.71-2,40.4,40.4,0,0,0-1.86,5.32,34.47,34.47,0,0,0-1,5.52c1.34.5,2.62.91,3.81,1.24,1.4.39,2.85.73,4.31,1a40.89,40.89,0,0,0,4.53.58c1.57.12,3.33.18,5.24.18A36.39,36.39,0,0,0,439.89,143a25.51,25.51,0,0,0,8.28-4.28A18.2,18.2,0,0,0,453.3,132.44Z"/><path class="cls-1" d="M213,101.69a23.1,23.1,0,0,0-2.87-10.19c-3.77-6.64-10.5-10-20-10h-.47c-2.3,0-14,.4-19.84,8.4l-.92,1.26L168,89.89c-5.8-8-17.54-8.4-19.84-8.4h-.43c-7.34,0-13.05,2-17,6-5.86,5.89-5.9,14.11-5.9,14.2l-.08,41.76a26,26,0,0,0,7.1.93,32.93,32.93,0,0,0,7.79-.95l0-35.9c0-.2-.4-6.88,3.15-10.67A8.15,8.15,0,0,1,149,94.32a11.67,11.67,0,0,1,8.85,3.43c3.88,4.09,3.59,10.29,3.58,10.55l.07,35.12a31.15,31.15,0,0,0,6.91.82h.35l.37,1.13v-1.13h.35a31.18,31.18,0,0,0,6.92-.82l.07-35.18c0-.2-.3-6.4,3.58-10.49a11.67,11.67,0,0,1,8.85-3.43A8.15,8.15,0,0,1,195,96.86c3.55,3.79,3.16,10.47,3.14,10.75l0,35.82a32.93,32.93,0,0,0,7.79.95h0a26,26,0,0,0,7.09-.93Z"/><path class="cls-2" d="M527,27c-1.28,0-8,.44-10.19.42l0,0a82.19,82.19,0,0,0-11.32.75A34.14,34.14,0,0,0,489,34.81a22.38,22.38,0,0,1-1.86-4.33,24.09,24.09,0,0,1-1-6.85,1.6,1.6,0,0,1,.32-1.26A11.41,11.41,0,1,0,471.8,11.43c0,13.69,13,27.17,13,27.17-6.73,7.25-13,19.28-13,26.79a11.44,11.44,0,1,0,14.56-10.94.87.87,0,0,1-.37-.94,25.82,25.82,0,0,1,2.89-11.27c7.72,7.16,22.76,7.73,27.89,7.53l0,0c2.56,0,9.51.06,10.19.06A11.44,11.44,0,1,0,527,27ZM472.93,60.6s.06-.09,0,0ZM495.3,41.68c0-.08-2.61-1.57-3.61-3.18,8-7.81,17.92-7,24.78-5l.21.07a11.12,11.12,0,0,0,.05,9.87s.13.19.11.2C506.38,46.78,499.26,44.17,495.3,41.68Z"/><path class="cls-3" d="M455.7,27a11.44,11.44,0,1,0,11.43,11.43A11.44,11.44,0,0,0,455.7,27Z"/></svg>