<?xml version="1.0" encoding="utf-8"?>
<!-- Svg Vector Icons : http://www.onlinewebfonts.com/icon -->
<!DOCTYPE svg PUBLIC "-//W3C//DTD SVG 1.1//EN" "http://www.w3.org/Graphics/SVG/1.1/DTD/svg11.dtd">
<svg fill="#D3D3D3" version="1.1" xmlns="http://www.w3.org/2000/svg" xmlns:xlink="http://www.w3.org/1999/xlink" x="0px" y="0px" viewBox="0 0 1000 1000" enable-background="new 0 0 1000 1000" xml:space="preserve">
<metadata> Svg Vector Icons : http://www.onlinewebfonts.com/icon </metadata>
<g><path d="M178.8,456.3c-26.2,15-65.8,36.7-65.8,122.2c0,85.4,2.1,260.1,3.6,302.1c1.5,42,32.2,109.4,103.4,109.4s252.6-4.5,252.6-4.5L307,445.1C307,445.1,205,441.3,178.8,456.3z"/><path d="M821.2,456.3C795,441.3,693,445.1,693,445.1L527.4,985.5c0,0,181.4,4.5,252.6,4.5c71.2,0,101.9-67.5,103.4-109.4c1.5-42,3.6-216.6,3.6-302.1C887,493,847.4,471.3,821.2,456.3z M799.4,809.7H667.5c-9.1,0-16.5-7.4-16.5-16.5c0-9.1,7.4-16.5,16.5-16.5h131.9c9.1,0,16.5,7.4,16.5,16.5S808.5,809.7,799.4,809.7z"/><path d="M497,10.1C358.7,6.3,301.7,114.9,302.1,211.6c0.4,95.7,58.9,228.6,192.7,226.8c133.8-1.9,203.1-105.3,202.8-203.1C697.1,137.4,651,14.3,497,10.1z"/><path d="M499.6,472.4l-97.1,89.9l97.1,319.3l96.3-320.4L499.6,472.4z"/></g>
</svg>
